<svg xmlns="http://www.w3.org/2000/svg" width="442" height="80">
    <g fill="none">
        <path fill="#000000"
            d="M1.638 21.974v12.69H0v-12.69h1.638Zm12.492 12.69h-1.638L5.904 24.638v10.026H4.266v-12.69h1.638l6.588 10.044V21.974h1.638v12.69Zm10.404-12.69v1.332h-3.582v11.358h-1.638V23.306h-3.582v-1.332h8.802Zm3.258 1.332v4.338h4.824v1.26h-4.824v4.428h5.364v1.332h-7.002v-12.69h7.002v1.332h-5.364Zm13.23-1.458c1.476 0 2.715.366 3.717 1.098 1.002.732 1.677 1.728 2.025 2.988h-1.728a3.882 3.882 0 0 0-1.503-1.854c-.702-.468-1.533-.702-2.493-.702-.864 0-1.638.201-2.322.603-.684.402-1.221.975-1.611 1.72-.39.743-.585 1.62-.585 2.627 0 1.032.198 1.923.594 2.673.396.75.945 1.326 1.647 1.728.702.402 1.509.603 2.421.603.78 0 1.494-.168 2.142-.504a4.146 4.146 0 0 0 1.593-1.467c.414-.642.663-1.395.747-2.259H40.68v-1.224h6.372v1.512a6.302 6.302 0 0 1-.936 2.736 5.614 5.614 0 0 1-2.088 1.944c-.876.48-1.872.72-2.988.72-1.224 0-2.304-.273-3.24-.819a5.693 5.693 0 0 1-2.187-2.286c-.522-.978-.783-2.097-.783-3.357 0-1.26.261-2.379.783-3.357a5.755 5.755 0 0 1 2.187-2.295c.936-.552 2.01-.828 3.222-.828Zm14.976 12.816-3.312-5.184h-1.782v5.184h-1.638v-12.69h4.176c1.44 0 2.52.345 3.24 1.035.72.69 1.08 1.605 1.08 2.745 0 1.032-.288 1.863-.864 2.493-.576.63-1.41 1.023-2.502 1.18l3.456 5.237h-1.854Zm-5.094-6.372h2.394c1.86 0 2.79-.816 2.79-2.448 0-1.632-.93-2.448-2.79-2.448h-2.394v4.896Zm16.29 3.438h-5.58l-1.062 2.934h-1.764l4.698-12.456h1.854l4.68 12.456h-1.764l-1.062-2.934Zm-.468-1.278-2.322-6.408-2.322 6.408h4.644Zm12.726-8.478v1.332H75.87v11.358h-1.638V23.306H70.65v-1.332h8.802Zm3.258 1.332v4.338h4.824v1.26H82.71v4.428h5.364v1.332h-7.002v-12.69h7.002v1.332H82.71Zm18.162 5.004c0 1.284-.258 2.403-.774 3.357-.516.954-1.275 1.692-2.277 2.214-1.002.522-2.205.783-3.609.783H90.18v-12.69h4.032c1.404 0 2.607.255 3.609.765 1.002.51 1.761 1.242 2.277 2.196.516.954.774 2.08.774 3.375Zm-6.786 4.878c1.656 0 2.922-.426 3.798-1.278.876-.852 1.314-2.052 1.314-3.6s-.435-2.75-1.305-3.609c-.87-.858-2.139-1.287-3.807-1.287h-2.268v9.774h2.268Zm-18.954 6.786-3.222 12.69h-1.998l-2.934-10.368-2.934 10.368h-1.998l-3.24-12.69h1.818l2.43 10.782 3.006-10.782h1.818l3.006 10.746 2.448-10.746h1.8Zm3.564 0v12.69h-1.638v-12.69h1.638Zm10.404 0v1.332h-3.582v11.358H83.88V41.306h-3.582v-1.332H89.1Zm11.358 0v12.69h-1.656v-5.868h-6.444v5.868H90.72v-12.69h1.638v5.49h6.444v-5.49h1.656Zm179.367 1.113c0 2.334-.474 4.367-1.423 6.101-.949 1.734-2.334 3.08-4.155 4.04-1.821.96-3.997 1.44-6.526 1.44H260V29.572h7.72c2.53 0 4.706.474 6.527 1.423 1.821.948 3.206 2.284 4.155 4.007.949 1.723 1.423 3.751 1.423 6.085Zm-12.399 8.211c2.77 0 4.896-.72 6.38-2.159 1.482-1.44 2.224-3.457 2.224-6.052 0-2.595-.742-4.613-2.225-6.052-1.483-1.44-3.609-2.16-6.379-2.16h-3.697v16.423h3.697Zm32.91-6.51c0 .61-.043 1.145-.13 1.603h-13.871c.065 1.854.578 3.228 1.538 4.122.96.894 2.148 1.342 3.565 1.342 1.244 0 2.296-.317 3.157-.95a3.917 3.917 0 0 0 1.587-2.518h3.991a7.759 7.759 0 0 1-1.505 3.37c-.763.98-1.755 1.75-2.977 2.306-1.221.556-2.584.834-4.089.834-1.745 0-3.288-.37-4.63-1.112-1.34-.742-2.393-1.81-3.156-3.206-.763-1.396-1.145-3.043-1.145-4.94 0-1.876.382-3.512 1.145-4.907.763-1.396 1.816-2.465 3.157-3.206 1.341-.742 2.884-1.113 4.629-1.113 1.767 0 3.31.366 4.63 1.096 1.319.73 2.333 1.734 3.041 3.01.71 1.276 1.064 2.699 1.064 4.27Zm-3.761-.098c.043-1.178-.159-2.164-.606-2.96-.447-.797-1.057-1.385-1.832-1.767a5.655 5.655 0 0 0-2.535-.573c-1.461 0-2.683.447-3.664 1.342-.981.894-1.516 2.213-1.603 3.958h10.24Zm14.754 6.118 5.103-14.166h3.991l-6.87 18.026h-4.514l-6.87-18.026h3.99l5.17 14.166Zm28.592-6.02c0 .61-.044 1.145-.13 1.603h-13.872c.066 1.854.578 3.228 1.538 4.122.96.894 2.148 1.342 3.566 1.342 1.243 0 2.295-.317 3.157-.95a3.917 3.917 0 0 0 1.586-2.518h3.991a7.759 7.759 0 0 1-1.504 3.37c-.764.98-1.756 1.75-2.977 2.306-1.222.556-2.585.834-4.09.834-1.744 0-3.287-.37-4.629-1.112-1.341-.742-2.393-1.81-3.157-3.206-.763-1.396-1.145-3.043-1.145-4.94 0-1.876.382-3.512 1.145-4.907.764-1.396 1.816-2.465 3.157-3.206 1.342-.742 2.885-1.113 4.63-1.113 1.766 0 3.309.366 4.628 1.096 1.32.73 2.334 1.734 3.043 3.01.709 1.276 1.063 2.699 1.063 4.27Zm-3.762-.098c.043-1.178-.158-2.164-.605-2.96-.447-.797-1.058-1.385-1.832-1.767a5.655 5.655 0 0 0-2.536-.573c-1.461 0-2.682.447-3.664 1.342-.981.894-1.515 2.213-1.603 3.958h10.24Zm11.09-14.23v24.208h-3.73V28.459h3.73Zm12.759 5.953c1.744 0 3.315.371 4.71 1.113a7.984 7.984 0 0 1 3.272 3.206c.785 1.395 1.178 3.031 1.178 4.907 0 1.897-.393 3.544-1.178 4.94a7.984 7.984 0 0 1-3.272 3.206c-1.395.741-2.966 1.112-4.71 1.112-1.745 0-3.31-.37-4.695-1.112-1.385-.742-2.475-1.816-3.271-3.223-.796-1.406-1.194-3.048-1.194-4.923 0-1.876.398-3.512 1.194-4.907.796-1.396 1.886-2.465 3.271-3.206 1.385-.742 2.95-1.113 4.695-1.113Zm0 3.24c-.96 0-1.843.217-2.65.653-.807.437-1.456 1.107-1.947 2.012-.49.905-.736 2.012-.736 3.32 0 1.331.245 2.443.736 3.338.49.894 1.14 1.56 1.947 1.995.807.436 1.69.655 2.65.655s1.842-.219 2.65-.655c.806-.436 1.455-1.101 1.946-1.995.49-.895.736-2.007.736-3.337 0-1.309-.245-2.416-.736-3.32-.49-.906-1.14-1.576-1.947-2.013a5.483 5.483 0 0 0-2.65-.654Zm23.096-3.24c1.57 0 2.971.371 4.204 1.113 1.232.741 2.197 1.81 2.895 3.206.698 1.395 1.047 3.031 1.047 4.907 0 1.897-.35 3.544-1.047 4.94-.698 1.395-1.663 2.464-2.895 3.206-1.233.741-2.634 1.112-4.204 1.112-1.636 0-3.032-.404-4.188-1.21a6.33 6.33 0 0 1-2.42-3.206v12.758h-3.73V34.642h3.73v4.188a6.33 6.33 0 0 1 2.42-3.206c1.156-.807 2.552-1.21 4.188-1.21Zm-1.145 3.272c-1.047 0-1.985.245-2.814.736-.828.49-1.483 1.189-1.962 2.094-.48.905-.72 1.946-.72 3.124 0 1.2.24 2.246.72 3.14.48.895 1.134 1.587 1.962 2.078.83.49 1.767.736 2.814.736 1.657 0 2.988-.53 3.991-1.587 1.003-1.058 1.505-2.513 1.505-4.367 0-1.832-.502-3.283-1.505-4.351-1.003-1.069-2.334-1.603-3.991-1.603Zm29.639 5.103c0 .61-.044 1.145-.13 1.603h-13.872c.066 1.854.578 3.228 1.538 4.122.96.894 2.148 1.342 3.566 1.342 1.243 0 2.295-.317 3.157-.95a3.917 3.917 0 0 0 1.586-2.518h3.991a7.759 7.759 0 0 1-1.504 3.37c-.764.98-1.756 1.75-2.977 2.306-1.222.556-2.585.834-4.09.834-1.744 0-3.287-.37-4.629-1.112-1.341-.742-2.393-1.81-3.157-3.206-.763-1.396-1.145-3.043-1.145-4.94 0-1.876.382-3.512 1.145-4.907.764-1.396 1.816-2.465 3.157-3.206 1.342-.742 2.885-1.113 4.63-1.113 1.766 0 3.309.366 4.628 1.096 1.32.73 2.334 1.734 3.043 3.01.709 1.276 1.063 2.699 1.063 4.27Zm-3.762-.098c.043-1.178-.158-2.164-.605-2.96-.447-.797-1.058-1.385-1.832-1.767a5.655 5.655 0 0 0-2.536-.573c-1.461 0-2.682.447-3.664 1.342-.981.894-1.515 2.213-1.603 3.958h10.24Zm11.09-4.514a6.951 6.951 0 0 1 2.617-2.798c1.134-.687 2.443-1.03 3.926-1.03v4.057h-1.112c-1.636 0-2.95.398-3.943 1.194-.992.796-1.488 2.11-1.488 3.942v9.127h-3.73V34.642h3.73v3.534Zm15.245-3.763c2.115 0 3.811.54 5.087 1.62 1.276 1.08 2.055 2.524 2.339 4.334h-3.533c-.153-.981-.573-1.772-1.26-2.371-.687-.6-1.597-.9-2.731-.9-.938 0-1.663.224-2.176.67-.512.448-.769 1.053-.769 1.816 0 .567.186 1.025.557 1.374.37.35.834.622 1.39.818.487.172 1.153.36 1.998.565l.374.09c1.352.305 2.448.621 3.288.948.84.327 1.559.845 2.159 1.554.6.709.9 1.674.9 2.895 0 1.505-.573 2.726-1.718 3.664-1.145.938-2.688 1.407-4.63 1.407-2.246 0-4.061-.523-5.446-1.57-1.385-1.047-2.22-2.508-2.503-4.384h3.631c.11.981.546 1.777 1.309 2.388.763.61 1.767.916 3.01.916.894 0 1.597-.234 2.11-.703.512-.47.769-1.063.769-1.783 0-.633-.197-1.134-.59-1.505-.392-.37-.883-.66-1.471-.867-.59-.207-1.396-.42-2.421-.638-1.309-.305-2.372-.61-3.19-.916a4.972 4.972 0 0 1-2.094-1.488c-.578-.687-.867-1.62-.867-2.797 0-1.527.573-2.765 1.718-3.714 1.145-.948 2.732-1.423 4.76-1.423Z" />
        <path fill="#000000"
            d="M147.862 33.375v-3.752h-6.814v23.004h6.981V39.88c1.197-2.664 3.215-3.996 6.056-3.997.829-.004 1.656.078 2.468.245v-6.606c-.6-.217-1.327-.326-2.183-.326-2.368 0-4.537 1.393-6.508 4.18Zm31.021 16.215c2.25-2.288 3.375-5.119 3.375-8.491 0-3.344-1.125-6.165-3.375-8.463-2.25-2.297-5.044-3.446-8.381-3.446-3.338 0-6.128 1.154-8.37 3.462-2.243 2.308-3.364 5.124-3.365 8.447 0 3.323 1.122 6.141 3.365 8.455 2.243 2.314 5.033 3.472 8.37 3.473 3.337.003 6.13-1.143 8.38-3.436Zm-12.071-4.518c-.959-1.078-1.438-2.402-1.438-3.969 0-1.54.48-2.853 1.438-3.938s2.188-1.628 3.69-1.629c1.502 0 2.736.543 3.702 1.63.966 1.085 1.449 2.398 1.448 3.937 0 1.555-.483 2.874-1.448 3.96-.965 1.084-2.199 1.627-3.701 1.627-1.503 0-2.733-.54-3.691-1.618Zm56.142-15.877c-3.235 0-5.975 1.128-8.218 3.385-2.243 2.257-3.365 5.098-3.365 8.523 0 3.51 1.074 6.375 3.222 8.594 2.148 2.22 4.962 3.331 8.442 3.334 2.338 0 4.336-.436 5.995-1.31a16.48 16.48 0 0 0 4.567-3.618l-5.056-2.828c-1.305 1.19-3.004 1.785-5.098 1.785-3.003 0-4.77-1.332-5.3-3.996h15.823a5.19 5.19 0 0 1 .041-.561c.027-.237.047-.455.06-.652a7.35 7.35 0 0 0 .021-.5c0-3.37-1.04-6.238-3.12-8.604-2.08-2.365-4.751-3.55-8.014-3.552Zm-4.73 9.728c.339-1.276.917-2.261 1.732-2.955a4.27 4.27 0 0 1 2.855-1.04c1.033 0 1.967.402 2.804 1.207.836.805 1.336 1.735 1.499 2.79l-8.89-.002Zm32.123-9.728c-2.365 0-4.533 1.393-6.504 4.18v-3.752h-6.811v23.004h6.973V39.88c1.197-2.664 3.215-3.996 6.056-3.997a11.97 11.97 0 0 1 2.467.245v-6.606c-.602-.217-1.329-.326-2.18-.326Z" />
        <path fill="#000000"
            d="M134.33 25.283c.103-.791.165-1.587.185-2.385h.01c0-9 7.324-16.32 16.32-16.32s16.32 7.324 16.32 16.32h6.578C173.743 10.272 163.47 0 150.845 0c-12.494 0-22.677 10.06-22.89 22.505h-.011a15.52 15.52 0 0 1-.137 1.938c-.3 2.337-1.173 5.706-3.617 8.484-1.913 2.175-4.53 3.646-7.807 4.413V22.058h-7.38v30.566h7.381V44.06a24.492 24.492 0 0 0 6.27-1.946l6.657 10.509h8.83l-9.74-14.574c.246-.253.49-.51.726-.777 3.542-4.027 4.784-8.74 5.203-11.989Zm74.095 34.067V29.623h-6.647v1.958c-1.563-1.59-3.54-2.386-5.933-2.386-2.95 0-5.506 1.11-7.668 3.328-2.161 2.219-3.242 4.97-3.242 8.255 0 3.268 1.106 5.992 3.319 8.172 2.212 2.18 4.741 3.27 7.585 3.269 2.31-.014 4.316-.65 6.016-1.91v9.042c-.07 7.698-6.33 13.901-14.028 13.901s-13.957-6.203-14.027-13.9h-6.576c0 11.36 9.243 20.6 20.6 20.6 11.157 0 20.265-8.915 20.59-19.994h.008v-.314c0-.1.008-.197.008-.296l-.005.002Zm-8.022-14.672c-.945 1.042-2.186 1.563-3.722 1.563-1.51 0-2.743-.521-3.702-1.563-.958-1.043-1.437-2.34-1.437-3.892 0-1.55.48-2.847 1.437-3.891.959-1.044 2.192-1.565 3.702-1.565 1.522 0 2.76.522 3.711 1.565.952 1.043 1.428 2.34 1.427 3.891.001 1.551-.471 2.849-1.418 3.892h.002Zm13.159 25.387a2.527 2.527 0 0 1-5.053 0c0-1.365 1.125-2.46 2.534-2.46 1.409 0 2.519 1.099 2.519 2.46Zm-4.424 0c0 1.094.81 1.964 1.92 1.964 1.08 0 1.874-.87 1.874-1.946s-.794-1.979-1.89-1.979c-1.094 0-1.902.881-1.902 1.96h-.002Zm1.515 1.29h-.573v-2.46c.312-.055.628-.08.945-.074.464 0 .675.074.855.18a.687.687 0 0 1 .24.54c0 .27-.21.479-.51.572v.03c.24.09.375.27.45.6.076.373.115.523.18.614h-.615c-.075-.09-.114-.315-.194-.6-.045-.27-.195-.39-.51-.39h-.27l.002.988Zm.015-1.394h.27c.314 0 .572-.106.572-.36 0-.229-.165-.375-.524-.375a1.354 1.354 0 0 0-.315.03l-.003.705Z" />
    </g>
</svg>