<svg width="85" height="85" viewBox="0 0 85 85" fill="none" xmlns="http://www.w3.org/2000/svg">
<circle cx="42.5" cy="42.5" r="42" fill="#6DAB9B" stroke="#E4E6E8"/>
<path fill-rule="evenodd" clip-rule="evenodd" d="M46.5201 54.9098V60.125H51.0719C52.4685 60.125 53.6007 61.2572 53.6007 62.6538C53.6007 64.0505 52.4685 65.1826 51.0719 65.1826H46.5201V70.2401C46.5201 71.6367 45.388 72.7689 43.9913 72.7689C42.5947 72.7689 41.4625 71.6367 41.4625 70.2401V65.1826H36.405C35.0084 65.1826 33.8763 64.0505 33.8763 62.6538C33.8763 61.2572 35.0084 60.125 36.405 60.125H41.4625V54.9098C37.1573 54.3706 32.9922 52.448 29.6865 49.1423C21.7861 41.242 21.7861 28.433 29.6865 20.5327C37.5868 12.6323 50.3958 12.6323 58.2961 20.5327C59.2836 21.5202 59.2836 23.1213 58.2961 24.1089C57.3086 25.0964 55.7075 25.0964 54.72 24.1089C48.7947 18.1836 39.1879 18.1836 33.2627 24.1089C27.3374 30.0341 27.3374 39.6409 33.2627 45.5661C39.1879 51.4914 48.7947 51.4914 54.72 45.5661C55.7075 44.5786 57.3086 44.5786 58.2961 45.5661C59.2836 46.5537 59.2836 48.1548 58.2961 49.1423C54.9904 52.448 50.8253 54.3706 46.5201 54.9098Z" fill="white"/>
<path fill-rule="evenodd" clip-rule="evenodd" d="M46.5202 60.1251V54.9098C50.8253 54.3706 54.9905 52.4481 58.2962 49.1424C59.2837 48.1548 59.2837 46.5537 58.2962 45.5662C57.3086 44.5787 55.7075 44.5787 54.72 45.5662C48.7947 51.4915 39.188 51.4915 33.2627 45.5662C27.3375 39.6409 27.3375 30.0342 33.2627 24.1089C39.188 18.1837 48.7947 18.1837 54.72 24.1089C55.7075 25.0965 57.3086 25.0965 58.2962 24.1089C59.2837 23.1214 59.2837 21.5203 58.2962 20.5327C50.3959 12.6324 37.5869 12.6324 29.6865 20.5327C21.7862 28.4331 21.7862 41.242 29.6865 49.1424C32.9922 52.4481 37.1573 54.3706 41.4626 54.9098V60.1251H36.4051C35.0085 60.1251 33.8763 61.2572 33.8763 62.6539C33.8763 64.0505 35.0085 65.1827 36.4051 65.1827H41.4626V70.2401C41.4626 71.6368 42.5947 72.7689 43.9914 72.7689C45.388 72.7689 46.5202 71.6368 46.5202 70.2401V65.1827H51.0719C52.4685 65.1827 53.6007 64.0505 53.6007 62.6539C53.6007 61.2572 52.4685 60.1251 51.0719 60.1251H46.5202ZM48.0507 66.7132V70.2401C48.0507 72.4821 46.2332 74.2995 43.9914 74.2995C41.7494 74.2995 39.932 72.4821 39.932 70.2401V66.7132H36.4051C34.1632 66.7132 32.3458 64.8958 32.3458 62.6539C32.3458 60.4119 34.1632 58.5945 36.4051 58.5945H39.932V56.2182C35.7821 55.4337 31.8147 53.4351 28.6043 50.2246C20.1062 41.7266 20.1062 27.9485 28.6043 19.4504C37.1023 10.9524 50.8804 10.9524 59.3784 19.4504C60.9636 21.0357 60.9636 23.6059 59.3784 25.1912C57.7932 26.7765 55.2229 26.7765 53.6377 25.1912C48.3102 19.8637 39.6726 19.8637 34.345 25.1912C29.0175 30.5188 29.0175 39.1563 34.345 44.4839C39.6726 49.8114 48.3102 49.8114 53.6377 44.4839C55.2229 42.8986 57.7932 42.8986 59.3784 44.4839C60.9636 46.0691 60.9636 48.6394 59.3784 50.2246C56.1679 53.4351 52.2007 55.4337 48.0507 56.2182V58.5945H51.0719C53.3137 58.5945 55.1313 60.4119 55.1313 62.6539C55.1313 64.8958 53.3137 66.7132 51.0719 66.7132H48.0507Z" fill="white"/>
</svg>
